<?xml version="1.0" standalone="no"?>
<!DOCTYPE svg PUBLIC "-//W3C//DTD SVG 20010904//EN"
 "http://www.w3.org/TR/2001/REC-SVG-20010904/DTD/svg10.dtd">
<svg version="1.0" xmlns="http://www.w3.org/2000/svg"
 width="2220.000000pt" height="2000.000000pt" viewBox="0 0 2220.000000 2000.000000"
 preserveAspectRatio="xMidYMid meet">
<metadata>
Created by potrace 1.16, written by Peter Selinger 2001-2019
</metadata>
<g transform="translate(0.000000,2000.000000) scale(0.100000,-0.100000)"
fill="#000000" stroke="none">
<path d="M10203 19804 c-40 -17 -53 -56 -29 -83 9 -10 16 -25 16 -34 0 -9 5
-19 11 -23 8 -5 6 -10 -5 -16 -21 -12 -21 -79 0 -224 8 -60 14 -152 13 -204
-1 -52 1 -160 4 -240 17 -434 18 -603 7 -689 -10 -69 -10 -100 -1 -136 12 -50
27 -233 41 -525 4 -96 11 -185 15 -196 6 -20 0 -24 -62 -43 -37 -12 -94 -37
-126 -56 -32 -19 -70 -38 -85 -41 -15 -3 -87 -35 -159 -70 -145 -70 -216 -125
-272 -208 -19 -28 -43 -63 -52 -77 -10 -15 -25 -55 -35 -90 -39 -150 15 -449
112 -619 16 -29 11 -61 -17 -116 -10 -21 -19 -43 -19 -50 0 -6 -7 -17 -14 -24
-8 -6 -23 -35 -32 -63 -9 -29 -25 -64 -35 -79 -21 -29 -24 -48 -9 -48 18 0 11
-18 -10 -25 -11 -3 -20 -15 -20 -26 0 -22 11 -24 29 -6 10 10 10 7 3 -13 -5
-14 -7 -31 -5 -37 3 -7 0 -13 -5 -13 -14 0 -33 26 -25 33 3 4 1 7 -5 7 -11 0
-16 -13 -13 -32 0 -5 -4 -8 -9 -8 -6 0 -10 -7 -10 -15 0 -9 6 -12 16 -8 13 5
15 3 6 -13 -6 -11 -6 -28 -1 -41 9 -25 25 -30 32 -10 2 6 8 9 12 5 4 -4 0 -14
-9 -23 -9 -9 -14 -21 -11 -26 4 -5 0 -6 -8 -4 -7 3 -22 -4 -33 -16 -14 -16
-15 -23 -6 -26 6 -3 12 -13 12 -24 0 -13 7 -19 23 -19 12 0 18 -4 12 -8 -5 -4
-19 -24 -29 -44 -11 -21 -25 -38 -33 -38 -7 0 -13 -6 -13 -14 0 -7 -11 -16
-24 -18 -19 -4 -23 -1 -19 16 2 15 1 17 -4 6 -17 -33 -64 -87 -87 -100 -15 -7
-28 -26 -32 -44 -4 -17 -17 -46 -30 -65 -13 -19 -21 -38 -18 -43 3 -4 0 -8 -5
-8 -6 0 -11 -8 -11 -18 0 -10 -10 -28 -23 -40 -13 -12 -29 -38 -37 -57 -8 -19
-18 -35 -22 -35 -5 0 -6 -5 -3 -10 3 -6 -1 -13 -10 -16 -11 -5 -13 -10 -5 -19
7 -8 7 -16 2 -19 -6 -3 -13 -18 -17 -33 -3 -15 -21 -48 -39 -73 -45 -61 -62
-97 -70 -147 -3 -23 -9 -49 -13 -59 -4 -11 -3 -15 4 -11 15 9 44 -3 37 -15 -8
-13 -67 1 -77 18 -4 8 -12 14 -18 14 -5 0 0 -10 11 -22 l21 -23 -30 -8 c-32
-8 -71 14 -71 40 0 15 -16 17 -25 3 -10 -16 -85 -12 -91 5 -4 8 -11 15 -16 15
-6 0 -8 -7 -4 -15 4 -10 -1 -15 -14 -15 -11 0 -20 5 -20 11 0 5 -14 2 -31 -8
-43 -25 -78 -99 -95 -202 -8 -47 -20 -99 -26 -116 -13 -36 -77 -145 -95 -163
-50 -51 -71 -144 -61 -270 8 -105 4 -159 -17 -237 -21 -79 -73 -222 -95 -263
-25 -46 -120 -252 -120 -259 0 -3 -12 -31 -26 -62 -60 -128 -87 -187 -95 -206
-27 -65 -58 -147 -74 -197 -17 -53 -36 -73 -61 -67 -15 3 -44 -12 -44 -23 0
-6 7 -7 16 -4 15 6 16 -4 10 -101 -20 -297 -7 -352 111 -501 69 -88 79 -128
51 -210 -22 -65 -51 -100 -154 -188 -58 -49 -174 -164 -197 -195 -59 -81 -132
-200 -184 -299 -66 -128 -95 -200 -87 -219 14 -32 14 -51 -1 -51 -18 0 -19 12
-3 28 7 7 8 12 3 12 -13 0 -50 -56 -70 -105 -28 -68 -47 -108 -84 -175 -47
-83 -79 -162 -90 -223 -10 -54 0 -108 46 -260 l26 -87 -23 -48 c-13 -26 -34
-64 -47 -85 -13 -21 -32 -53 -42 -70 -10 -18 -34 -59 -53 -93 -49 -85 -72
-149 -62 -171 12 -29 13 -56 1 -44 -16 16 -27 13 -27 -6 0 -10 -7 -36 -14 -59
-8 -22 -18 -69 -21 -104 -4 -36 -9 -68 -12 -72 -2 -5 3 -63 12 -131 22 -171
15 -338 -18 -437 -26 -82 -68 -190 -99 -260 -49 -110 -65 -150 -109 -275 -21
-60 -47 -153 -58 -205 -11 -52 -31 -149 -46 -215 -14 -66 -30 -145 -36 -175
-5 -30 -19 -100 -30 -154 -11 -55 -24 -133 -30 -175 -6 -42 -12 -87 -15 -101
-3 -14 -7 -114 -10 -223 l-5 -199 -49 -71 c-27 -40 -63 -91 -79 -114 -30 -42
-30 -43 -10 -54 25 -13 18 -25 -8 -14 -10 4 -31 9 -47 11 -16 2 -53 17 -82 33
-32 17 -57 25 -65 20 -8 -5 -16 -3 -21 4 -9 15 -107 -76 -133 -125 -11 -20
-63 -81 -115 -135 -69 -71 -105 -117 -129 -166 -18 -38 -44 -87 -58 -110 l-25
-42 6 35 6 36 -84 -8 c-46 -5 -120 -19 -163 -32 -97 -29 -224 -76 -239 -87 -6
-5 -33 -16 -60 -24 -27 -8 -84 -35 -126 -60 l-77 -46 -148 -5 c-81 -3 -276 -6
-433 -7 -256 -2 -371 2 -552 19 -63 5 -280 6 -318 0 -227 -33 -444 -60 -480
-58 -25 1 -214 4 -420 6 -374 5 -524 9 -782 22 -93 4 -163 2 -220 -6 -46 -7
-92 -14 -103 -15 -30 -2 -89 -14 -187 -37 -59 -14 -96 -28 -114 -45 -15 -14
-47 -31 -70 -38 -24 -7 -67 -32 -95 -56 -42 -35 -49 -46 -44 -66 5 -21 3 -24
-14 -18 -14 4 -30 -7 -64 -46 -25 -28 -47 -63 -50 -78 -5 -24 -4 -24 9 -7 17
23 25 18 18 -11 -6 -23 -47 -40 -53 -22 -5 16 -56 -47 -98 -121 -20 -36 -54
-84 -76 -108 -21 -24 -45 -58 -53 -77 -7 -18 -18 -37 -24 -40 -16 -10 -60 -82
-60 -98 0 -8 -9 -22 -21 -33 -12 -11 -18 -26 -15 -37 2 -10 2 -16 -1 -13 -7 7
-33 -12 -33 -24 0 -4 18 -10 40 -14 22 -3 40 -11 40 -17 0 -6 -16 -8 -44 -4
-43 7 -45 6 -69 -31 -26 -41 -22 -74 8 -74 19 0 19 -19 1 -26 -11 -4 -13 -21
-11 -67 5 -85 12 -114 41 -169 8 -14 14 -33 14 -42 0 -18 25 -61 53 -88 9 -10
17 -26 17 -36 0 -11 8 -26 18 -35 25 -23 107 -47 159 -47 61 0 91 -18 132 -79
20 -30 43 -65 52 -78 9 -14 57 -64 105 -111 49 -48 110 -112 136 -143 54 -65
137 -127 258 -191 47 -25 130 -71 185 -101 57 -31 119 -58 145 -61 24 -4 51
-13 60 -21 8 -8 58 -26 110 -41 52 -15 115 -36 140 -46 25 -11 56 -22 70 -24
55 -10 107 -27 140 -45 40 -21 118 -49 140 -49 8 0 32 -9 53 -20 20 -11 45
-20 54 -20 10 0 34 -10 53 -22 19 -11 85 -38 145 -59 137 -46 196 -72 218 -94
31 -30 111 -81 202 -129 49 -26 96 -53 105 -60 8 -7 33 -21 55 -31 22 -10 58
-26 79 -36 22 -11 45 -19 52 -19 6 0 23 -9 38 -21 42 -33 381 -207 436 -224
14 -4 54 -22 90 -41 75 -38 127 -58 224 -84 37 -10 79 -28 91 -40 13 -12 28
-19 34 -16 5 4 19 -1 30 -10 21 -18 73 -40 136 -56 52 -13 53 -13 100 -42 74
-45 235 -116 263 -116 20 0 62 -31 62 -45 0 -30 111 -67 257 -84 37 -5 104
-23 148 -41 136 -55 133 -54 300 -89 43 -9 64 -16 110 -36 51 -23 226 -67 241
-61 8 3 41 -4 72 -15 31 -11 72 -25 91 -31 19 -5 44 -16 55 -23 12 -7 55 -19
96 -25 41 -7 80 -16 85 -20 24 -18 74 -29 79 -17 3 9 5 9 5 0 1 -7 10 -13 22
-13 11 0 34 -9 50 -21 16 -11 58 -26 95 -32 36 -7 62 -15 59 -19 -4 -3 13 -9
37 -13 83 -13 178 -43 268 -83 25 -11 81 -27 125 -37 110 -23 180 -44 245 -71
99 -41 164 -63 233 -79 37 -9 94 -27 125 -41 79 -35 215 -83 287 -101 33 -9
76 -21 95 -28 19 -7 58 -17 85 -23 28 -5 110 -31 183 -56 73 -26 137 -44 142
-41 5 3 17 2 27 -3 10 -6 32 -15 48 -22 29 -12 47 -21 83 -39 47 -25 206 -65
278 -70 45 -3 88 -12 97 -19 31 -26 200 -68 327 -82 58 -6 131 -20 163 -31 79
-26 195 -48 297 -55 47 -3 108 -12 135 -19 65 -18 249 -39 278 -32 23 6 57 1
192 -28 47 -10 124 -17 185 -16 93 0 165 -12 180 -30 3 -3 47 -12 98 -19 51
-7 94 -16 96 -19 3 -4 48 -3 101 0 87 6 105 4 162 -17 36 -13 68 -22 72 -20 3
2 76 0 161 -4 108 -5 165 -12 185 -23 42 -21 168 -39 310 -43 66 -2 176 -6
245 -10 89 -4 144 -1 191 9 45 9 83 12 115 6 72 -12 222 -11 229 1 5 8 11 8
19 1 7 -6 16 -8 19 -4 4 3 26 8 49 10 24 2 69 8 101 13 32 5 68 5 80 1 23 -9
166 -6 256 4 30 4 138 8 240 8 133 2 193 6 209 15 19 11 34 11 71 2 93 -22
189 -20 268 7 66 22 82 23 180 17 109 -7 213 6 241 29 7 6 37 10 65 9 332 -8
351 -6 439 39 9 4 71 9 137 10 66 0 137 5 158 11 21 5 61 15 88 21 28 7 57 16
65 22 8 5 26 8 40 7 47 -5 240 43 275 69 23 17 137 49 175 49 22 0 40 4 40 9
0 5 30 17 68 27 37 9 84 26 104 36 21 10 42 18 48 18 6 0 18 7 26 15 9 8 30
15 47 15 27 0 74 15 201 63 16 6 41 21 56 34 20 16 59 29 131 43 136 27 194
47 226 76 14 13 42 26 62 30 70 12 266 85 306 112 25 18 80 39 145 56 58 15
137 42 175 60 39 18 93 41 120 50 28 10 64 24 80 31 17 7 44 18 62 26 17 7 29
18 26 23 -4 5 1 7 11 3 10 -4 30 -1 44 7 15 8 52 24 82 36 30 12 96 41 145 65
50 24 128 61 175 81 47 20 108 47 135 60 28 12 75 32 105 44 30 12 78 31 105
42 28 10 67 33 88 50 21 17 60 36 85 43 73 19 112 43 174 106 31 33 63 59 72
59 41 0 196 130 210 177 4 12 26 33 49 47 50 28 184 166 222 226 15 23 35 45
46 47 10 3 19 8 19 12 0 4 29 28 64 54 39 28 71 60 81 81 9 19 27 38 38 42 12
4 37 18 55 32 25 19 30 27 20 34 -9 6 -6 7 8 4 26 -8 81 19 95 46 6 12 17 17
26 14 10 -4 13 -2 10 8 -6 16 20 36 103 78 30 15 47 28 38 28 -10 0 -18 5 -18
11 0 7 12 9 33 5 26 -5 40 -1 62 16 26 20 41 22 203 25 130 3 180 8 197 19 12
8 24 12 27 8 3 -3 29 6 56 20 28 14 83 34 123 45 39 12 79 27 89 36 9 8 26 15
37 15 20 0 82 22 116 40 9 6 47 17 82 25 36 9 108 36 161 60 53 25 97 45 99
45 2 0 30 16 62 35 32 19 65 35 74 35 9 0 22 6 29 14 6 8 21 16 33 18 14 2 22
10 22 23 0 34 52 104 72 98 15 -5 105 85 98 97 -3 5 5 20 17 33 13 13 32 35
44 48 11 13 36 38 55 55 19 17 43 48 54 68 l20 38 -30 24 c-16 13 -25 24 -18
24 6 0 15 -5 18 -10 3 -6 12 -10 19 -10 17 0 43 59 30 68 -5 4 -10 18 -12 32
-2 14 -10 38 -18 54 -7 16 -11 32 -9 37 3 4 -14 43 -37 86 -24 43 -49 90 -57
105 -8 15 -38 52 -67 83 -49 51 -57 56 -87 51 -17 -3 -26 -3 -20 0 9 4 10 11
3 24 -6 12 -27 20 -61 25 -28 4 -46 11 -40 14 26 17 -24 34 -214 75 -38 9
-151 20 -250 26 -99 6 -202 13 -230 16 -27 3 -122 4 -210 2 -287 -4 -609 6
-640 21 -46 23 -119 41 -161 41 -25 0 -54 5 -65 11 -11 5 -71 14 -133 19 -62
5 -140 16 -172 24 -32 9 -90 22 -129 31 -86 20 -129 30 -225 55 -41 11 -87 20
-103 20 -15 0 -58 11 -96 24 -37 13 -88 27 -112 31 -24 3 -71 15 -104 25 -33
11 -100 26 -150 34 -49 8 -115 22 -145 30 -30 9 -90 20 -134 25 -43 5 -83 14
-89 20 -6 6 -48 11 -97 11 -53 0 -91 5 -98 12 -12 12 -230 29 -370 28 -41 0
-99 6 -130 14 -42 11 -84 12 -162 7 -58 -4 -116 -4 -129 1 -14 5 -32 6 -40 3
-22 -9 -783 -17 -855 -9 l-58 6 -28 62 c-16 33 -38 67 -49 74 -12 7 -21 22
-21 35 0 29 -89 130 -128 146 -43 18 -73 64 -77 120 -7 76 -19 98 -72 123 -42
20 -49 28 -58 65 -6 23 -13 45 -18 49 -11 11 -9 26 3 19 6 -3 10 5 10 18 0 35
-38 214 -49 236 -6 10 -8 21 -5 24 9 8 -35 97 -49 98 -6 1 -19 2 -27 3 -8 2
-23 3 -32 4 -11 1 -18 10 -18 22 0 21 -26 28 -32 8 -3 -8 -11 -9 -24 -3 -10 5
-64 15 -119 22 -165 23 -175 23 -175 8 0 -8 5 -17 10 -20 6 -3 10 -11 10 -18
0 -6 -15 3 -32 19 -18 16 -60 48 -92 69 -67 45 -101 92 -171 240 -71 148 -82
187 -100 360 -3 28 -10 74 -15 104 -18 103 -15 113 43 142 56 28 119 104 157
189 11 25 24 52 29 61 5 8 19 54 31 102 20 83 21 90 6 142 -9 30 -21 57 -26
60 -6 3 -10 14 -10 23 0 24 -95 158 -109 154 -7 -1 -10 2 -6 8 3 5 -7 29 -22
52 -45 67 -62 113 -122 335 -17 62 -31 123 -31 135 0 64 -92 350 -130 403 -11
16 -46 117 -58 165 -6 25 -16 99 -22 165 -7 66 -21 172 -31 235 -30 175 -46
275 -63 390 -9 58 -28 141 -41 185 -36 117 -34 132 26 190 84 82 142 230 100
255 -10 6 -11 10 -3 10 6 0 12 5 12 11 0 6 -9 8 -20 4 -23 -7 -41 22 -21 34 9
6 9 14 0 34 -7 15 -15 24 -19 22 -4 -3 -7 1 -6 9 1 12 -45 69 -137 170 -35 38
-69 110 -74 156 -7 65 -65 314 -98 425 -18 61 -41 139 -50 175 -9 36 -20 79
-25 95 -5 17 -11 46 -15 65 -3 19 -14 53 -24 75 -10 22 -33 85 -51 140 -18 55
-38 114 -45 130 -7 17 -18 55 -25 85 -27 122 -84 278 -125 345 -23 39 -46 81
-50 95 -4 14 -16 36 -26 49 -29 36 -23 54 29 99 67 56 132 167 132 224 0 68
-43 172 -104 249 -12 15 -30 39 -41 55 -22 32 -143 152 -215 214 -25 21 -108
91 -185 156 -77 64 -143 121 -146 127 -4 5 -20 7 -35 4 -26 -4 -31 -1 -49 37
-13 26 -26 41 -37 40 -10 -1 -15 2 -13 7 3 4 -86 68 -197 142 -196 130 -241
165 -237 183 1 5 -1 16 -4 24 -18 46 -131 381 -140 415 -5 22 -20 68 -33 103
-31 81 -30 102 6 143 72 79 113 151 134 233 18 68 15 80 -58 220 -7 14 -25 37
-39 50 -30 28 -206 163 -245 188 -54 35 -198 177 -217 214 -11 22 -25 42 -31
46 -6 4 -9 18 -7 32 3 13 -6 50 -20 83 -65 150 -101 255 -91 267 5 7 30 42 57
77 85 114 101 187 84 389 -11 129 -42 278 -77 369 -38 99 -98 194 -117 187 -8
-4 -13 0 -11 8 4 18 -41 74 -117 145 -114 107 -146 142 -140 151 7 11 -13 76
-29 98 -5 8 -11 21 -12 30 -4 30 -38 116 -59 147 -12 17 -33 57 -49 90 -15 33
-32 68 -37 77 -5 10 -9 25 -9 33 0 8 -4 15 -10 15 -5 0 -10 13 -10 29 0 16 -7
34 -15 41 -8 7 -15 21 -15 31 0 10 -5 21 -11 24 -6 4 -8 13 -5 21 3 8 1 14 -4
14 -6 0 -10 6 -10 13 0 7 -11 35 -24 63 -34 69 -60 127 -61 139 -2 17 -37 80
-49 87 -6 4 -7 8 -2 8 5 0 4 6 -2 13 -5 6 -15 31 -21 55 -7 23 -16 42 -21 42
-6 0 -10 7 -10 15 0 8 -4 23 -9 33 -5 9 -24 55 -41 102 -17 47 -51 127 -76
178 -24 51 -44 96 -44 99 0 3 -16 42 -36 87 -19 44 -40 92 -46 106 -6 14 -21
46 -34 71 -13 26 -24 55 -24 66 0 10 -6 27 -14 38 -7 11 -37 65 -66 120 -28
55 -57 106 -63 114 -13 15 -23 32 -54 88 -12 22 -39 62 -61 89 -22 28 -42 59
-46 70 -3 11 -21 35 -40 54 -18 19 -50 58 -71 85 -47 61 -75 86 -87 79 -14 -9
-68 17 -68 32 0 18 -35 17 -77 -2z m-1499 -7981 c-10 -7 -13 -13 -8 -13 6 0
20 9 32 20 26 24 36 26 28 4 -6 -15 -4 -15 18 0 32 20 42 21 26 1 -7 -9 -10
-18 -7 -21 9 -9 27 5 27 22 0 8 4 14 8 14 17 0 21 -13 10 -33 -8 -16 -8 -22 1
-25 6 -2 9 -8 5 -13 -3 -5 -12 -2 -21 6 -9 10 -22 13 -32 9 -21 -9 -42 -9 -63
0 -13 6 -15 3 -11 -12 3 -15 12 -18 39 -16 43 3 36 -12 -8 -19 -44 -6 -79 8
-72 28 3 8 1 15 -5 15 -6 0 -11 -14 -11 -31 0 -27 -2 -30 -15 -19 -9 7 -19 10
-23 6 -4 -4 1 -12 11 -17 9 -6 15 -15 11 -21 -4 -6 -10 -5 -15 3 -7 12 -11 12
-17 1 -5 -7 -13 -12 -18 -11 -5 1 -22 -3 -38 -10 -29 -12 -51 -6 -28 8 7 4 10
15 6 25 -5 12 -1 19 15 23 21 5 29 29 11 35 -5 2 9 23 30 47 22 25 40 38 40
30 0 -8 -6 -21 -12 -28 -11 -10 -9 -12 7 -9 11 2 19 9 18 15 -2 7 13 17 32 23
20 7 36 19 37 28 0 9 3 1 5 -18 3 -25 0 -38 -13 -47z m2088 -2224 c2 -5 22
-13 46 -16 27 -4 42 -11 42 -20 0 -10 -4 -11 -19 -3 -18 9 -19 7 -16 -34 3
-32 1 -46 -10 -50 -17 -6 -21 -36 -5 -36 6 0 13 7 16 15 4 8 10 15 16 15 5 0
6 -5 3 -10 -4 -6 -1 -18 6 -26 9 -11 9 -18 1 -26 -6 -6 -8 -16 -6 -23 3 -6 -1
-17 -9 -24 -11 -9 -17 -8 -27 4 -10 12 -10 15 4 15 9 0 16 7 16 15 0 22 -15
18 -33 -7 l-15 -23 -36 19 c-25 13 -33 23 -26 30 15 15 12 46 -5 46 -9 0 -18
7 -21 15 -5 12 -8 12 -20 0 -8 -7 -14 -21 -14 -29 0 -22 -23 -20 -45 4 -14 15
-21 17 -26 8 -6 -9 -13 -9 -33 2 -26 13 -35 43 -16 55 6 3 10 15 10 26 0 10 7
19 15 19 17 0 20 -16 5 -25 -6 -4 -5 -13 2 -25 7 -10 16 -16 21 -13 5 3 3 9
-4 14 -25 15 -1 20 40 9 41 -11 76 -2 93 24 4 6 10 7 14 3 4 -3 -3 -14 -14
-24 -18 -15 -19 -21 -9 -35 18 -23 58 -31 79 -15 23 18 11 72 -16 72 -11 0
-21 6 -23 13 -3 6 3 12 13 12 9 0 14 3 10 8 -4 4 -13 7 -18 7 -6 0 -13 6 -15
13 -3 6 2 12 10 12 9 0 17 -5 19 -11z m-1100 -249 c3 -17 1 -33 -4 -36 -15 -9
-9 -34 7 -28 9 4 15 0 15 -9 0 -8 9 -17 21 -20 15 -4 19 -2 15 9 -9 24 14 15
26 -10 11 -25 32 -27 86 -10 7 2 22 -5 34 -15 11 -11 28 -17 37 -15 10 4 9 1
-4 -7 -11 -8 -22 -14 -25 -15 -3 0 -12 -3 -20 -7 -8 -3 -34 -11 -57 -17 -41
-10 -62 -40 -28 -40 8 0 15 4 15 9 0 5 17 12 38 16 39 6 91 -7 104 -28 5 -8 8
-6 8 6 0 9 3 17 8 17 11 0 33 -40 28 -49 -3 -4 6 -6 19 -3 18 3 32 -4 54 -27
18 -19 39 -31 54 -31 14 0 27 -5 29 -12 3 -7 13 -5 32 7 28 18 29 18 42 0 8
-10 17 -15 21 -11 4 4 3 10 -3 14 -6 4 -14 17 -18 30 -9 27 -26 29 -26 2 0
-23 -8 -25 -31 -7 -12 9 -17 29 -18 69 0 58 12 85 22 48 3 -11 1 -20 -4 -20
-6 0 -5 -8 1 -19 6 -13 7 -22 0 -26 -10 -6 -3 -35 9 -35 4 0 7 10 7 23 -1 12
4 21 12 19 6 -1 12 4 12 12 0 16 18 31 27 22 3 -3 -2 -17 -11 -30 -14 -22 -14
-25 -1 -20 10 4 15 0 15 -15 0 -12 5 -21 10 -21 6 0 10 -6 10 -13 0 -7 9 -18
20 -25 17 -10 20 -10 20 3 0 8 5 15 10 15 6 0 10 -9 10 -21 0 -12 5 -19 13
-17 22 8 18 34 -8 46 -15 7 -25 8 -25 2 0 -6 -4 -10 -10 -10 -5 0 -10 6 -10
14 0 8 -6 16 -12 19 -9 3 -8 10 6 26 21 24 36 20 16 -4 -16 -19 -6 -32 13 -16
11 8 20 5 41 -14 15 -14 32 -23 37 -20 12 8 12 -2 0 -24 -12 -22 2 -46 22 -38
11 4 19 -3 26 -24 11 -31 41 -40 41 -12 0 15 2 14 14 -3 17 -22 6 -32 -51 -45
-27 -5 -33 -4 -29 6 5 13 -51 28 -59 15 -3 -6 -100 -4 -165 2 -21 3 -25 -1
-23 -19 3 -24 -20 -32 -33 -11 -4 7 -3 8 4 4 7 -4 12 -3 12 3 0 5 -4 12 -9 15
-12 8 -61 -17 -61 -31 0 -7 -5 -13 -11 -13 -6 0 -9 7 -5 15 3 9 0 15 -9 15 -8
0 -19 8 -25 18 -10 16 -10 16 -20 0 -6 -10 -16 -18 -21 -18 -6 0 -7 5 -4 10
10 15 -5 50 -20 50 -8 0 -12 6 -9 14 3 7 -2 16 -10 19 -9 4 -16 13 -16 21 0 8
-10 16 -22 18 -13 2 -27 13 -33 26 -10 23 -50 31 -57 11 -2 -6 -19 -17 -38
-25 l-35 -15 30 26 30 25 -32 -4 c-19 -2 -39 2 -50 10 -17 14 -17 15 3 9 12
-3 26 0 33 9 9 11 3 18 -31 39 -29 17 -45 22 -50 14 -8 -14 0 -29 13 -22 12 8
11 5 -3 -36 -6 -19 -16 -37 -21 -40 -5 -4 -4 -15 3 -29 11 -20 10 -21 -8 -16
-14 5 -24 1 -32 -11 -9 -15 -10 -14 -4 7 4 14 7 31 7 38 0 6 6 12 13 12 21 0
27 33 8 47 -10 7 -21 13 -26 13 -4 0 -8 12 -8 28 l-1 27 -14 -25 c-9 -17 -10
-29 -3 -37 14 -17 0 -37 -16 -24 -9 8 -19 4 -34 -14 -24 -28 -45 -33 -36 -10
4 8 13 15 21 15 9 0 13 6 9 15 -3 9 4 21 19 31 31 21 32 30 1 36 -27 5 -48 -3
-45 -18 5 -30 -16 -49 -40 -34 -10 5 -10 13 -2 27 8 17 6 24 -14 43 -20 19
-25 20 -25 7 0 -9 8 -21 18 -26 15 -9 15 -12 2 -20 -9 -6 -16 -7 -18 -1 -2 5
-10 6 -18 3 -19 -7 -18 21 1 51 9 13 14 30 13 37 -4 18 40 14 62 -6 22 -20 56
-19 64 1 5 14 4 15 -7 5 -11 -9 -17 -8 -27 3 -20 25 -3 35 37 21 33 -12 38
-11 41 2 2 8 10 12 19 9 11 -4 13 -1 8 14 -7 21 9 28 20 10 10 -16 26 -1 24
23 -5 59 15 82 23 27z m-1320 -145 c-2 -11 -7 -22 -10 -25 -4 -3 -8 -16 -10
-29 -1 -14 -14 -40 -28 -58 -14 -18 -20 -33 -15 -33 6 0 11 5 11 10 0 6 6 10
14 10 8 0 17 6 20 13 3 8 8 7 16 -5 6 -10 16 -18 21 -18 14 0 39 -26 39 -39 0
-6 4 -11 10 -11 5 0 7 7 4 15 -5 12 -1 12 26 -1 35 -18 55 -10 27 10 -23 18
-22 29 2 16 11 -5 22 -20 24 -32 l4 -23 8 23 c9 26 28 24 34 -4 1 -10 10 -27
19 -36 8 -10 10 -18 4 -18 -6 0 -14 5 -17 10 -11 18 -27 11 -22 -10 3 -11 1
-20 -4 -20 -8 0 -13 13 -11 31 0 3 -13 10 -29 16 -27 10 -29 10 -24 -6 4 -14
-1 -18 -25 -18 -36 0 -45 -7 -36 -28 4 -11 12 -14 26 -10 26 8 26 -7 0 -23
-13 -8 -34 -10 -55 -6 -19 3 -43 3 -52 -1 -22 -9 -73 -12 -73 -4 0 3 5 10 12
17 9 9 9 15 0 24 -9 9 -12 8 -12 -6 0 -13 -7 -17 -27 -14 -16 1 -31 7 -34 11
-3 5 -21 9 -40 10 -19 1 -33 7 -31 12 1 6 5 10 10 10 31 3 52 18 47 35 -3 10
-1 21 5 25 5 3 10 1 10 -6 0 -7 2 -10 5 -7 3 3 3 13 -1 22 -6 16 -8 16 -25 0
-11 -9 -19 -12 -19 -6 0 6 4 14 10 17 6 4 4 15 -5 29 -8 12 -12 26 -8 29 3 4
1 7 -6 7 -6 0 -16 -12 -22 -27 -7 -20 -13 -23 -21 -15 -7 7 -20 12 -30 12 -11
0 -18 7 -18 19 0 21 31 23 38 3 2 -7 8 -12 14 -12 6 0 8 6 5 14 -6 15 36 31
53 21 15 -9 23 15 10 30 -10 12 -9 16 4 21 9 3 16 12 16 20 0 8 5 14 10 14 12
0 13 -17 2 -23 -12 -8 -7 -90 7 -116 l13 -24 20 31 c20 32 17 52 -8 52 -8 0
-14 6 -14 14 0 14 46 11 67 -6 19 -15 26 10 8 29 -14 14 -18 14 -26 2 -7 -11
-9 -9 -9 8 0 24 42 52 75 50 14 -2 19 -8 17 -22z m2287 -282 c1 19 16 23 26 6
5 -6 11 -4 19 6 11 15 13 14 25 -9 8 -14 21 -26 30 -28 13 -3 12 -7 -7 -26
-12 -12 -17 -22 -12 -22 17 0 11 -25 -10 -48 -11 -12 -20 -24 -20 -28 0 -10
-32 -44 -41 -44 -4 0 -22 20 -39 43 -24 34 -36 43 -53 40 -23 -4 -67 21 -55
32 4 4 13 3 20 -1 7 -5 27 -9 44 -10 38 -1 54 -10 54 -30 0 -9 7 -14 18 -12
12 2 16 -3 14 -17 -3 -19 -2 -19 20 3 18 18 20 24 9 31 -8 5 -11 16 -6 30 7
24 -12 30 -21 6 -7 -16 -34 -21 -34 -6 0 5 -13 12 -29 16 -16 3 -32 13 -35 22
-6 14 -8 14 -25 -1 -14 -13 -21 -14 -26 -6 -4 7 -1 16 6 21 11 7 10 9 -3 9
-10 0 -18 7 -18 15 0 19 34 19 50 0 10 -12 16 -13 26 -4 10 8 14 8 14 0 0 -6
7 -11 16 -11 12 0 15 6 11 21 -3 11 -3 28 0 37 5 12 10 7 19 -19 7 -19 13 -26
13 -16z m-564 -3015 c-6 -17 -4 -20 10 -14 23 9 62 -24 43 -36 -9 -5 -6 -8 9
-8 16 0 21 -4 17 -15 -4 -8 1 -17 10 -21 9 -3 16 -14 17 -23 0 -10 2 -11 6 -3
7 17 23 15 23 -3 0 -8 5 -15 10 -15 19 0 10 19 -25 55 -30 29 -34 38 -25 55
13 24 35 27 26 4 -5 -14 -4 -15 8 -5 11 9 21 5 47 -21 48 -47 60 -73 45 -94
-10 -13 -15 -14 -21 -5 -4 7 -3 17 3 23 10 10 -7 38 -23 38 -4 0 -15 10 -25
23 -10 12 -22 18 -27 14 -4 -5 7 -22 25 -38 18 -16 30 -34 26 -40 -4 -6 0 -15
7 -20 28 -17 -3 -22 -32 -5 -26 15 -33 16 -40 5 -7 -12 -9 -11 -9 1 -1 28 -38
62 -60 55 -15 -5 -18 -3 -14 9 5 12 0 16 -21 16 -27 0 -27 -1 -12 -24 14 -21
14 -26 2 -36 -15 -13 -20 -5 -16 27 1 7 -19 18 -44 24 -49 12 -63 39 -19 39
14 0 23 4 20 9 -8 12 31 44 43 36 6 -3 11 -1 11 4 0 6 3 11 6 11 3 0 2 -10 -1
-22z m-438 -3386 c-18 -4 -51 -51 -42 -60 4 -4 15 5 26 19 10 15 31 34 45 43
24 16 27 16 68 -4 24 -11 61 -21 82 -22 52 -2 128 -58 79 -58 -9 0 -18 7 -22
17 -5 13 -8 12 -16 -8 l-9 -24 -11 23 c-5 12 -14 22 -19 22 -5 0 -7 -3 -5 -7
10 -17 -13 -53 -33 -53 -13 0 -20 -7 -20 -20 0 -11 -4 -20 -10 -20 -5 0 -10 4
-10 9 0 10 -97 61 -117 61 -7 0 -13 -5 -13 -11 0 -6 -9 -9 -20 -6 -11 3 -23 1
-26 -4 -10 -17 -22 -9 -29 21 -5 22 -1 37 15 57 28 36 70 54 89 39 12 -9 12
-11 -2 -14z m1040 -518 c15 -14 14 -19 -1 -50 -20 -44 -20 -54 2 -54 15 -1 15
-2 1 -13 -9 -7 -22 -30 -29 -52 -25 -79 -65 -99 -75 -37 -4 20 -9 44 -11 54
-3 9 1 20 7 24 9 5 10 2 6 -9 -9 -23 -5 -21 27 8 14 13 26 31 26 40 0 15 -1
15 -16 0 -20 -20 -32 -11 -14 10 7 9 10 18 7 22 -4 3 5 14 18 25 14 11 25 26
25 34 0 18 8 18 27 -2z m308 -135 c-4 -11 -2 -19 4 -19 20 0 12 -24 -24 -75
-62 -87 -90 -83 -87 11 1 31 -3 66 -9 77 -10 18 -9 19 17 14 16 -3 40 0 53 8
32 16 54 9 46 -16z m3075 -159 c0 -5 -1 -12 -2 -15 -7 -11 43 -36 55 -27 7 5
22 12 35 15 19 4 22 2 17 -13 -5 -15 2 -23 29 -34 20 -8 36 -19 36 -24 0 -17
30 -22 51 -9 17 10 22 9 30 -5 6 -10 17 -18 24 -18 8 0 15 -7 15 -15 0 -27
-31 -65 -54 -65 -20 -1 -20 -1 -2 -15 16 -12 17 -17 6 -30 -7 -9 -20 -13 -28
-10 -8 3 -23 -2 -34 -12 -14 -13 -21 -14 -30 -5 -15 15 -58 16 -58 2 0 -5 -5
-10 -11 -10 -8 0 -8 4 -1 13 10 13 10 52 -1 63 -4 4 -7 19 -7 33 0 41 -16 58
-24 27 -5 -21 -10 -25 -22 -18 -19 11 -64 4 -64 -10 0 -5 -7 -8 -16 -6 -18 3
-29 78 -12 78 5 0 6 10 3 21 -5 15 -4 19 4 15 6 -4 11 -3 11 3 0 5 -4 13 -10
16 -15 9 -12 25 5 25 9 0 12 6 9 15 -8 21 13 19 26 -2 9 -16 10 -15 5 5 -4 13
-2 22 4 22 6 0 11 -4 11 -10z m-2287 -150 c9 -13 20 -18 31 -14 25 10 19 -12
-14 -44 -16 -17 -30 -39 -30 -49 0 -27 -23 -73 -36 -73 -6 0 -16 6 -22 13 -13
15 -22 137 -10 137 4 0 8 7 8 15 0 9 10 20 23 25 32 13 34 12 50 -10z"/>
</g>
</svg>
